<?xml version="1.0" standalone="no"?>
<!DOCTYPE svg PUBLIC "-//W3C//DTD SVG 20010904//EN"
 "http://www.w3.org/TR/2001/REC-SVG-20010904/DTD/svg10.dtd">
<svg version="1.0" xmlns="http://www.w3.org/2000/svg"
 width="512.000000pt" height="512.000000pt" viewBox="0 0 512.000000 512.000000"
 preserveAspectRatio="xMidYMid meet">
<metadata>
Created by potrace 1.16, written by Peter Selinger 2001-2019
</metadata>
<g transform="translate(0.000000,512.000000) scale(0.100000,-0.100000)"
fill="#000000" stroke="none">
<path d="M1566 4958 c-41 -143 -272 -1045 -366 -1427 -16 -68 -30 -132 -30
-143 0 -40 282 -1395 514 -2472 82 -377 91 -402 167 -470 69 -63 118 -80 244
-84 83 -3 138 1 225 17 536 99 1587 289 2000 361 129 23 240 47 247 53 10 10
4 50 -28 187 -22 96 -51 222 -64 280 -13 58 -45 195 -70 305 -159 693 -322
1437 -405 1848 -31 158 -60 291 -64 294 -4 4 -41 0 -82 -9 -54 -11 -77 -12
-79 -4 -2 6 -13 85 -24 175 -13 103 -26 170 -34 178 -12 12 -32 8 -137 -32
-68 -25 -128 -44 -135 -42 -6 3 -21 74 -34 158 -37 251 -52 333 -61 343 -15
15 -52 -1 -148 -64 -58 -37 -94 -55 -96 -47 -2 6 -9 59 -15 117 -17 155 -30
160 -158 59 -34 -28 -67 -48 -71 -45 -5 3 -15 67 -22 143 -13 140 -20 163 -49
163 -8 0 -84 -68 -168 -152 -84 -84 -154 -150 -157 -147 -3 2 -10 80 -17 173
-12 162 -21 196 -49 196 -17 0 -90 -89 -416 -512 l-51 -67 -6 67 c-4 36 -12
176 -18 311 -7 135 -17 252 -22 259 -5 6 -18 12 -29 12 -21 0 -67 -91 -149
-294 l-44 -109 -6 89 c-4 49 -8 134 -9 189 -1 55 -5 120 -8 145 -6 39 -10 45
-34 48 -25 3 -28 -1 -42 -50z m33 -375 l10 -192 -40 -103 c-22 -57 -79 -206
-125 -333 -47 -126 -108 -292 -136 -367 -28 -76 -55 -138 -60 -138 -4 0 -8 1
-8 3 0 3 181 704 287 1114 32 123 59 220 60 215 1 -4 7 -93 12 -199z m264
-203 l13 -165 -126 -170 c-170 -230 -317 -435 -375 -523 -27 -40 -50 -71 -52
-69 -1 2 31 93 72 203 42 109 94 249 117 309 54 144 281 728 305 782 l18 42 8
-122 c4 -67 13 -196 20 -287z m529 184 l3 -132 -504 -506 c-277 -279 -505
-505 -507 -503 -11 11 568 799 875 1189 135 173 127 176 133 -48z m394 -1 c7
-70 10 -131 6 -134 -39 -32 -616 -485 -747 -586 -93 -72 -262 -204 -375 -292
-113 -88 -209 -161 -214 -161 -12 0 271 288 706 718 460 454 602 591 607 587
2 -2 9 -62 17 -132z m249 -130 c4 -49 8 -96 8 -105 2 -17 -209 -154 -768 -498
-213 -132 -452 -282 -687 -434 -32 -20 -58 -35 -58 -32 0 4 290 230 650 507
96 75 281 218 410 320 298 235 421 329 431 329 4 0 10 -39 14 -87z m323 -370
l19 -122 -161 -54 c-89 -30 -379 -128 -646 -217 -470 -157 -630 -214 -869
-306 -62 -25 -115 -43 -117 -41 -4 3 306 198 708 445 387 238 553 341 798 496
l215 136 17 -108 c10 -59 26 -162 36 -229z m335 -238 c10 -81 15 -150 12 -153
-6 -6 -310 -64 -982 -187 -227 -41 -557 -105 -734 -141 -296 -60 -374 -72
-302 -46 304 111 609 216 1118 385 341 114 672 227 735 251 63 24 120 43 125
42 6 -2 18 -69 28 -151z m201 -207 c3 -13 19 -95 37 -183 36 -188 123 -598
209 -985 61 -278 110 -492 271 -1193 49 -213 89 -395 89 -405 0 -15 -28 -22
-192 -51 -281 -48 -611 -107 -1353 -242 -363 -66 -673 -123 -690 -126 l-30 -5
-48 224 c-81 375 -222 1042 -307 1453 -44 215 -92 442 -105 505 -13 63 -45
216 -70 340 -25 124 -48 232 -51 241 -3 12 8 18 48 27 29 6 150 31 268 56 223
47 474 96 860 166 325 59 959 179 1000 189 54 14 59 13 64 -11z m-2531 -259
c67 -22 177 -85 177 -100 0 -18 -139 -10 -179 10 -38 20 -101 83 -101 101 0
16 36 12 103 -11z m26 -166 c46 -13 68 -14 126 -5 38 6 71 10 72 9 4 -5 153
-725 153 -741 0 -13 -12 -16 -65 -16 -81 0 -157 16 -217 46 -44 22 -47 27 -58
81 -7 32 -41 197 -76 367 -35 170 -64 313 -64 317 0 5 17 -3 37 -17 20 -13 61
-32 92 -41z m136 -799 c27 -8 92 -14 143 -14 50 0 92 -2 92 -4 0 -8 231 -1112
236 -1128 5 -16 -3 -18 -64 -18 -90 0 -187 30 -236 72 l-37 33 -54 250 c-70
329 -175 830 -175 839 0 4 10 1 22 -5 12 -7 45 -18 73 -25z m181 -1173 c25
-25 137 -51 218 -51 72 0 85 -3 90 -17 6 -22 156 -720 156 -727 0 -12 -128 -5
-176 9 -55 16 -122 68 -153 118 -12 20 -45 148 -86 337 -36 168 -68 313 -71
323 -6 18 6 23 22 8z"/>
<path d="M3575 3258 c-192 -37 -807 -151 -1424 -263 -307 -56 -343 -67 -309
-101 15 -15 76 -5 790 125 1189 217 1169 213 1182 234 9 15 7 21 -8 33 -11 8
-22 13 -25 13 -3 -1 -96 -19 -206 -41z"/>
<path d="M3288 2794 c-17 -5 -23 -17 -18 -39 1 -5 17 -84 36 -175 20 -91 38
-205 42 -255 l7 -90 46 2 c97 5 182 64 214 148 27 68 17 197 -18 257 -51 88
-144 148 -236 154 -31 1 -64 1 -73 -2z m131 -84 c100 -50 141 -113 141 -215 0
-79 -25 -136 -73 -165 -53 -33 -64 -27 -72 38 -4 31 -20 122 -36 201 -16 79
-29 148 -29 153 0 14 29 9 69 -12z"/>
<path d="M2978 2710 c-57 -44 -85 -180 -69 -332 21 -196 41 -245 91 -218 23
13 23 9 6 82 l-14 56 66 12 c74 13 82 8 82 -51 0 -49 20 -74 53 -65 35 8 35
33 3 186 -62 296 -131 399 -218 330z m107 -190 c14 -58 28 -112 31 -121 3 -12
-9 -18 -57 -27 -34 -6 -66 -9 -70 -6 -19 11 1 254 22 281 22 26 47 -16 74
-127z"/>
<path d="M2475 2638 c-49 -28 -59 -80 -40 -219 16 -121 52 -316 61 -330 3 -5
16 -9 29 -9 38 0 178 47 216 73 92 62 67 163 -51 202 l-49 16 34 35 c40 40 50
69 42 125 -6 49 -29 76 -82 100 -45 21 -129 24 -160 7z m141 -73 c29 -19 40
-58 26 -90 -11 -25 -98 -94 -118 -95 -22 0 -33 194 -11 204 19 9 77 -2 103
-19z m66 -282 c62 -36 44 -77 -46 -107 -75 -24 -82 -22 -90 27 -4 23 -9 57
-13 76 l-6 34 62 -6 c33 -3 76 -14 93 -24z"/>
<path d="M3813 2170 c-61 -14 -93 -61 -93 -133 0 -51 7 -58 131 -140 87 -57
109 -84 109 -137 0 -34 -31 -70 -60 -70 -11 0 -38 16 -60 36 -41 37 -65 41
-84 12 -9 -15 -4 -25 30 -59 131 -130 302 -2 224 168 -15 35 -35 53 -107 99
-120 76 -136 101 -93 144 29 29 58 25 96 -15 34 -37 71 -46 81 -19 9 23 -17
64 -57 90 -43 28 -75 35 -117 24z"/>
<path d="M3404 2085 c-76 -52 -96 -300 -43 -507 12 -45 38 -63 64 -44 17 12
17 19 7 71 -9 45 -9 61 -1 66 15 9 119 22 125 16 3 -2 9 -28 13 -57 10 -66 30
-82 66 -56 18 13 18 18 5 97 -32 201 -93 379 -142 413 -28 20 -67 20 -94 1z
m80 -96 c18 -44 61 -228 55 -234 -2 -2 -33 -7 -68 -11 l-64 -7 5 119 c6 124
18 174 42 174 7 0 21 -18 30 -41z"/>
<path d="M3031 2034 c-46 -8 -90 -19 -98 -25 -19 -16 -16 -60 12 -222 14 -78
31 -171 37 -206 14 -81 33 -101 96 -101 55 0 150 25 171 45 21 20 6 45 -26 45
-15 0 -52 -7 -81 -14 -30 -8 -60 -12 -67 -10 -7 3 -18 34 -24 68 -18 103 -18
104 37 112 74 11 94 21 90 47 -3 19 -9 22 -43 22 -22 0 -56 -4 -76 -8 l-35 -7
-13 67 c-7 38 -14 78 -17 89 -5 20 0 23 63 33 94 16 103 20 103 40 0 19 -19
41 -34 40 -6 -1 -49 -7 -95 -15z"/>
<path d="M2486 1953 c-22 -6 -22 -7 29 -253 20 -96 37 -204 38 -240 l2 -65 36
-3 c58 -5 143 33 188 84 101 114 69 312 -66 419 -63 50 -161 75 -227 58z m146
-89 c37 -19 94 -77 114 -117 24 -45 21 -145 -5 -200 -20 -42 -64 -77 -95 -77
-18 0 -16 -6 -52 190 -14 80 -30 162 -34 182 -4 21 -5 40 -2 43 7 6 37 -2 74
-21z"/>
<path d="M2273 1903 c-19 -7 -16 -33 26 -244 22 -107 43 -215 46 -241 4 -26
13 -52 21 -59 15 -12 50 -4 57 14 6 16 -93 509 -105 525 -11 12 -24 14 -45 5z"/>
<path d="M4080 1294 c-269 -53 -1299 -246 -1545 -289 -143 -25 -268 -48 -277
-51 -22 -7 -23 -40 -3 -52 21 -11 362 48 1230 214 187 36 437 83 555 105 118
22 219 44 223 48 5 5 7 17 5 27 -5 27 -42 26 -188 -2z"/>
</g>
</svg>
