<?xml version="1.0" encoding="UTF-8"?>
<!DOCTYPE svg PUBLIC "-//W3C//DTD SVG 1.1//EN" "http://www.w3.org/Graphics/SVG/1.1/DTD/svg11.dtd">
<svg xmlns="http://www.w3.org/2000/svg" version="1.1" width="1024px" height="1024px" style="shape-rendering:geometricPrecision; text-rendering:geometricPrecision; image-rendering:optimizeQuality; fill-rule:evenodd; clip-rule:evenodd" xmlns:xlink="http://www.w3.org/1999/xlink">
<g><path style="opacity:1" fill="#f9f9f9" d="M -0.5,-0.5 C 340.833,-0.5 682.167,-0.5 1023.5,-0.5C 1023.5,340.833 1023.5,682.167 1023.5,1023.5C 682.167,1023.5 340.833,1023.5 -0.5,1023.5C -0.5,682.167 -0.5,340.833 -0.5,-0.5 Z"/></g>
<g><path style="opacity:1" fill="#060606" d="M 318.5,103.5 C 318.201,105.604 318.534,107.604 319.5,109.5C 320.298,109.043 320.631,108.376 320.5,107.5C 329.797,80.4406 341.13,54.274 354.5,29C 357.167,28.3333 359.833,28.3333 362.5,29C 363.701,29.9025 364.535,31.0692 365,32.5C 366.67,74.5368 369.003,116.537 372,158.5C 400.076,119.523 429.242,81.3568 459.5,44C 464.428,42.3567 467.928,43.8567 470,48.5C 471.82,71.5155 473.82,94.5155 476,117.5C 496.528,96.6381 517.362,76.1381 538.5,56C 542.886,54.9432 546.053,56.4432 548,60.5C 549.772,80.2165 551.938,99.8832 554.5,119.5C 565.673,109.812 577.506,101.146 590,93.5C 592.923,93.7952 595.257,95.1285 597,97.5C 598.546,113.584 600.713,129.584 603.5,145.5C 616.5,137 629.5,128.5 642.5,120C 645.993,118.996 649.159,119.496 652,121.5C 657.128,155.141 662.295,188.807 667.5,222.5C 683.539,216.431 699.539,210.265 715.5,204C 723.506,202.089 727.339,205.255 727,213.5C 730.08,234.472 732.913,255.472 735.5,276.5C 744.459,274.678 753.459,273.011 762.5,271.5C 765.325,271.119 767.491,272.119 769,274.5C 809.686,463.745 852.186,652.578 896.5,841C 896.297,843.406 895.297,845.406 893.5,847C 741.683,876.165 589.683,904.499 437.5,932C 412.796,937.161 389.796,933.161 368.5,920C 354.466,909.444 345.3,895.61 341,878.5C 299.741,698.467 259.908,518.134 221.5,337.5C 246.857,230.34 274.024,123.673 303,17.5C 307.333,12.1667 311.667,12.1667 316,17.5C 317.184,46.1578 318.018,74.8245 318.5,103.5 Z"/></g>
<g><path style="opacity:1" fill="#f6f6f6" d="M 458.5,63.5 C 461.726,85.2557 463.559,107.256 464,129.5C 418.306,174.861 372.972,220.528 328,266.5C 306.983,288.683 286.15,311.016 265.5,333.5C 264.5,333 263.5,332.5 262.5,332C 325.275,240.608 390.609,151.108 458.5,63.5 Z"/></g>
<g><path style="opacity:1" fill="#f5f5f5" d="M 353.5,57.5 C 356.146,96.3413 358.312,135.341 360,174.5C 322.192,224.78 285.859,276.113 251,328.5C 282.333,237.155 316.499,146.822 353.5,57.5 Z"/></g>
<g><path style="opacity:1" fill="#f3f3f3" d="M 304.5,56.5 C 306.077,84.0066 307.243,111.673 308,139.5C 283.609,201.289 260.609,263.622 239,326.5C 237.989,327.337 236.822,327.67 235.5,327.5C 257.72,236.952 280.72,146.619 304.5,56.5 Z"/></g>
<g><path style="opacity:1" fill="#f6f6f6" d="M 535.5,74.5 C 536.787,75.8714 537.453,77.7047 537.5,80C 538.87,95.5337 540.537,111.034 542.5,126.5C 542.167,127.5 541.833,128.5 541.5,129.5C 455.467,198.187 369.801,267.354 284.5,337C 282.788,338.751 280.788,339.418 278.5,339C 277.549,338.282 277.383,337.449 278,336.5C 362.56,248.105 448.393,160.772 535.5,74.5 Z"/></g>
<g><path style="opacity:1" fill="#68696b" d="M 318.5,103.5 C 319.167,104.833 319.833,106.167 320.5,107.5C 320.631,108.376 320.298,109.043 319.5,109.5C 318.534,107.604 318.201,105.604 318.5,103.5 Z"/></g>
<g><path style="opacity:1" fill="#f5f5f5" d="M 584.5,110.5 C 585.75,110.577 586.583,111.244 587,112.5C 588.171,125.204 589.671,137.871 591.5,150.5C 591.43,151.772 591.097,152.938 590.5,154C 492.025,216.152 394.359,279.485 297.5,344C 295.598,345.301 293.598,345.968 291.5,346C 389.236,267.481 486.903,188.981 584.5,110.5 Z"/></g>
<g><path style="opacity:1" fill="#f7f7f7" d="M 640.5,135.5 C 641.497,135.47 642.164,135.97 642.5,137C 647.234,167.103 651.567,197.27 655.5,227.5C 562.081,257.584 469.414,289.751 377.5,324C 352.41,334.58 327.41,344.414 302.5,353.5C 415.476,281.167 528.142,208.501 640.5,135.5 Z"/></g>
<g><path style="opacity:1" fill="#f6f6f6" d="M 713.5,217.5 C 715.164,218.949 715.998,220.949 716,223.5C 718.57,242.135 720.737,260.802 722.5,279.5C 634.14,296.173 545.807,313.006 457.5,330C 410.142,340.676 362.808,351.009 315.5,361C 420.273,319.95 526.273,282.283 633.5,248C 660.539,238.492 687.206,228.325 713.5,217.5 Z"/></g>
<g><path style="opacity:1" fill="#f8f8f8" d="M 752.5,285.5 C 755.079,285.083 757.246,285.75 759,287.5C 770.076,340.882 781.41,394.215 793,447.5C 822.983,577.097 852.483,706.763 881.5,836.5C 733.338,864.729 585.005,892.062 436.5,918.5C 396.943,738.552 357.443,558.552 318,378.5C 317.333,376.833 317.333,375.167 318,373.5C 437.53,346.527 557.696,322.361 678.5,301C 703.347,296.117 728.013,290.95 752.5,285.5 Z"/></g>
<g><path style="opacity:1" fill="#f0f0f0" d="M 237.5,340.5 C 259.326,342.01 278.659,350.01 295.5,364.5C 270.437,369.933 251.104,361.933 237.5,340.5 Z"/></g>
<g><path style="opacity:1" fill="#060606" d="M 732.5,352.5 C 736.516,351.9 740.016,352.9 743,355.5C 744.291,359.672 743.124,362.839 739.5,365C 613.173,387.832 486.84,410.666 360.5,433.5C 353.675,432.183 352.008,428.516 355.5,422.5C 357.22,421.066 359.22,420.233 361.5,420C 485.468,398.151 609.134,375.651 732.5,352.5 Z"/></g>
<g><path style="opacity:1" fill="#f7f7f7" d="M 239.5,362.5 C 258.161,378.144 279.328,382.478 303,375.5C 303.772,375.645 304.439,375.978 305,376.5C 315.31,424.551 325.81,472.551 336.5,520.5C 336,520.833 335.5,521.167 335,521.5C 318.899,523.67 303.066,522.503 287.5,518C 281.592,515.465 276.092,512.298 271,508.5C 260.82,459.745 250.32,411.079 239.5,362.5 Z"/></g>
<g><path style="opacity:1" fill="#060606" d="M 639.5,452.5 C 670.037,450.21 691.87,462.877 705,490.5C 709.275,504.721 709.608,519.054 706,533.5C 701.648,545.187 693.814,553.687 682.5,559C 674.083,562.18 665.416,563.846 656.5,564C 655.667,563.167 654.833,562.333 654,561.5C 653.765,552.463 653.098,543.463 652,534.5C 646.307,508.406 640.64,482.406 635,456.5C 636.397,454.93 637.897,453.596 639.5,452.5 Z"/></g>
<g><path style="opacity:1" fill="#060606" d="M 583.5,465.5 C 590.617,465.308 596.45,467.974 601,473.5C 606.885,483.149 611.219,493.482 614,504.5C 619.186,522.273 623.519,540.273 627,558.5C 629.659,568.151 626.159,572.651 616.5,572C 615.333,570.833 614.167,569.667 613,568.5C 612.372,561.066 611.205,553.732 609.5,546.5C 602.088,547.124 594.754,548.291 587.5,550C 585.22,550.233 583.22,551.066 581.5,552.5C 583.312,559.73 585.312,566.897 587.5,574C 585.996,579.82 582.329,581.82 576.5,580C 573.57,577.88 571.737,575.047 571,571.5C 565.038,549.545 562.704,527.212 564,504.5C 564.766,492.366 568.599,481.366 575.5,471.5C 577.926,469.059 580.593,467.059 583.5,465.5 Z"/></g>
<g><path style="opacity:1" fill="#f6f6f6" d="M 651.5,465.5 C 672.555,468.78 686.721,480.447 694,500.5C 694.667,508.5 694.667,516.5 694,524.5C 691.397,539.607 682.564,547.94 667.5,549.5C 667.55,544.448 667.05,539.448 666,534.5C 661.583,511.41 656.749,488.41 651.5,465.5 Z"/></g>
<g><path style="opacity:1" fill="#f2f2f3" d="M 585.5,479.5 C 587.484,479.383 589.15,480.05 590.5,481.5C 592.253,484.005 593.753,486.671 595,489.5C 598.916,503.666 602.749,517.833 606.5,532C 605.008,533.885 603.008,534.885 600.5,535C 593.562,536.586 586.562,537.753 579.5,538.5C 577.591,521.022 578.424,503.689 582,486.5C 582.653,483.861 583.82,481.527 585.5,479.5 Z"/></g>
<g><path style="opacity:1" fill="#050505" d="M 487.5,481.5 C 502.058,480.182 514.225,484.849 524,495.5C 529.115,506.548 528.449,517.215 522,527.5C 518.625,531.044 515.125,534.377 511.5,537.5C 522.645,539.488 532.145,544.488 540,552.5C 545.462,565.78 541.962,575.947 529.5,583C 515.55,589.876 500.884,593.876 485.5,595C 476.789,566.246 471.456,536.746 469.5,506.5C 468.73,492.979 474.73,484.645 487.5,481.5 Z"/></g>
<g><path style="opacity:1" fill="#f4f4f4" d="M 487.5,494.5 C 497.019,493.25 505.185,495.917 512,502.5C 515.39,509.183 514.724,515.516 510,521.5C 503.431,527.903 495.931,532.903 487.5,536.5C 484.873,523.617 483.706,510.617 484,497.5C 485.145,496.364 486.312,495.364 487.5,494.5 Z"/></g>
<g><path style="opacity:1" fill="#f8f8f8" d="M 275.5,525.5 C 294.483,534.466 314.483,537.466 335.5,534.5C 337.924,534.148 339.424,535.148 340,537.5C 356.509,612.865 373.009,688.198 389.5,763.5C 365.702,767.176 344.202,761.842 325,747.5C 307.749,673.656 291.249,599.656 275.5,525.5 Z"/></g>
<g><path style="opacity:1" fill="#f4f4f5" d="M 489.5,549.5 C 503.304,547.499 515.804,550.499 527,558.5C 528.457,561.366 528.79,564.366 528,567.5C 525.441,570.531 522.274,572.698 518.5,574C 512.863,575.825 507.196,577.492 501.5,579C 499.421,579.808 497.421,579.641 495.5,578.5C 493.606,568.797 491.606,559.13 489.5,549.5 Z"/></g>
<g><path style="opacity:1" fill="#070707" d="M 744.5,575.5 C 760.35,573.01 772.183,578.676 780,592.5C 780.658,600.51 777.158,603.343 769.5,601C 766.833,595.667 762.833,591.667 757.5,589C 747.387,586.384 741.72,590.217 740.5,600.5C 740.855,604.712 742.855,607.879 746.5,610C 759.788,616.556 771.954,624.722 783,634.5C 788.096,640.957 790.263,648.29 789.5,656.5C 790.306,674.026 781.973,683.359 764.5,684.5C 752.623,682.812 743.123,677.145 736,667.5C 736.112,658.846 740.279,656.346 748.5,660C 753.782,669.147 761.448,672.481 771.5,670C 773.894,668.048 775.394,665.548 776,662.5C 777.11,656.574 776.444,650.908 774,645.5C 770.833,642.333 767.667,639.167 764.5,636C 754.167,629.667 743.833,623.333 733.5,617C 725.528,608.086 724.362,598.252 730,587.5C 733.541,581.78 738.374,577.78 744.5,575.5 Z"/></g>
<g><path style="opacity:1" fill="#050505" d="M 667.5,590.5 C 677.566,588.95 685.066,592.616 690,601.5C 702.855,630.588 710.855,660.922 714,692.5C 709.748,698.653 705.081,698.986 700,693.5C 698.615,685.856 697.448,678.19 696.5,670.5C 687.425,671.782 678.425,673.448 669.5,675.5C 669.167,676 668.833,676.5 668.5,677C 671.051,684.69 672.551,692.523 673,700.5C 667.75,706.173 663.084,705.84 659,699.5C 655.821,686.939 653.155,674.273 651,661.5C 650.333,648.5 650.333,635.5 651,622.5C 652.063,609.371 657.563,598.704 667.5,590.5 Z"/></g>
<g><path style="opacity:1" fill="#050505" d="M 606.5,600.5 C 613.164,600 616.331,603 616,609.5C 615.167,610.333 614.333,611.167 613.5,612C 603.616,614.37 593.616,616.203 583.5,617.5C 585.24,629.87 587.24,642.203 589.5,654.5C 597.423,652.52 605.423,650.853 613.5,649.5C 619.805,649.992 621.972,653.325 620,659.5C 619.5,660 619,660.5 618.5,661C 611.541,662.823 604.541,664.49 597.5,666C 595.349,666.265 593.682,667.265 592.5,669C 594.204,679.255 596.37,689.421 599,699.5C 599.804,700.804 600.971,701.471 602.5,701.5C 611.174,698.799 620.007,696.799 629,695.5C 635.092,694.924 637.758,697.591 637,703.5C 636.167,705 635,706.167 633.5,707C 622.839,710.304 612.005,712.804 601,714.5C 593.252,714.962 587.918,711.629 585,704.5C 579.667,677.169 574.334,649.836 569,622.5C 566.545,614.584 569.045,609.084 576.5,606C 586.669,604.331 596.669,602.497 606.5,600.5 Z"/></g>
<g><path style="opacity:1" fill="#f2f2f2" d="M 671.5,603.5 C 673.722,603.178 675.556,603.845 677,605.5C 678.333,608.167 679.667,610.833 681,613.5C 685.308,628.397 689.141,643.397 692.5,658.5C 683.854,659.963 675.187,661.296 666.5,662.5C 664.783,645.42 665.283,628.42 668,611.5C 668.906,608.69 670.073,606.024 671.5,603.5 Z"/></g>
<g><path style="opacity:1" fill="#050505" d="M 489.5,619.5 C 517.174,619.919 537.008,632.586 549,657.5C 555.843,675.967 554.843,693.967 546,711.5C 534.415,726.038 519.249,732.871 500.5,732C 499.874,731.25 499.374,730.416 499,729.5C 499.939,721.479 499.606,713.479 498,705.5C 492.549,679.247 486.716,653.08 480.5,627C 480.354,624.966 481.02,623.299 482.5,622C 484.927,621.098 487.26,620.264 489.5,619.5 Z"/></g>
<g><path style="opacity:1" fill="#040404" d="M 442.5,630.5 C 445.32,630.248 447.986,630.748 450.5,632C 452.044,634.999 453.211,638.166 454,641.5C 460.804,670.385 467.138,699.385 473,728.5C 473.91,739.834 469.577,742.501 460,736.5C 453.511,704.722 446.511,673.055 439,641.5C 437.662,636.96 438.829,633.293 442.5,630.5 Z"/></g>
<g><path style="opacity:1" fill="#f6f6f6" d="M 497.5,633.5 C 513.291,636.445 525.458,644.779 534,658.5C 541.06,673.745 541.06,689.078 534,704.5C 529.614,711.947 523.114,716.28 514.5,717.5C 509.205,689.446 503.539,661.446 497.5,633.5 Z"/></g>
<g><path style="opacity:1" fill="#070707" d="M 830.5,740.5 C 836.679,739.858 839.846,742.525 840,748.5C 839.535,749.931 838.701,751.097 837.5,752C 710.293,777.312 582.96,801.979 455.5,826C 450.875,827.162 446.208,827.496 441.5,827C 437.244,822.615 437.577,818.615 442.5,815C 572.104,790.849 701.437,766.016 830.5,740.5 Z"/></g>
<g><path style="opacity:1" fill="#f7f7f7" d="M 328.5,764.5 C 348.172,775.999 369.172,779.332 391.5,774.5C 391.833,775 392.167,775.5 392.5,776C 403.543,824.096 414.21,872.263 424.5,920.5C 397.955,923.612 376.788,914.612 361,893.5C 357.524,887.543 354.857,881.209 353,874.5C 344.826,837.808 336.66,801.141 328.5,764.5 Z"/></g>
</svg>
